<?xml version="1.0" encoding="UTF-8" standalone="no"?>
<!DOCTYPE svg PUBLIC "-//W3C//DTD SVG 1.1//EN" "http://www.w3.org/Graphics/SVG/1.1/DTD/svg11.dtd">
<svg width="100%" height="100%" viewBox="0 0 225 50" version="1.1" xmlns="http://www.w3.org/2000/svg" xmlns:xlink="http://www.w3.org/1999/xlink" xml:space="preserve" xmlns:serif="http://www.serif.com/" style="fill-rule:evenodd;clip-rule:evenodd;stroke-linejoin:round;stroke-miterlimit:2;">
    <g transform="matrix(1,0,0,1,-1709.28,-948)">
        <g id="WCASNavbar" transform="matrix(0.274052,0,0,0.277778,1712.02,953.556)">
            <rect x="-10" y="-20" width="820" height="180" style="fill:none;"/>
            <clipPath id="_clip1">
                <rect x="-10" y="-20" width="820" height="180"/>
            </clipPath>
            <g clip-path="url(#_clip1)">
                <g transform="matrix(3.64894,0,0,3.6,-207.043,-130.452)">
                    <g transform="matrix(16,0,0,16,110,51.681)">
                        <path d="M0.269,0.005L0.403,0.005L0.561,-0.453L0.719,0.005L0.853,0.005L1.092,-0.7L0.931,-0.7L0.786,-0.226L0.629,-0.702L0.497,-0.702L0.34,-0.226L0.195,-0.7L0.03,-0.7L0.269,0.005Z" style="fill:white;fill-rule:nonzero;"/>
                    </g>
                    <g transform="matrix(16,0,0,16,126.912,51.681)">
                        <path d="M0.322,0.012C0.419,0.012 0.491,-0.026 0.541,-0.088L0.454,-0.165C0.412,-0.126 0.375,-0.11 0.324,-0.11C0.256,-0.11 0.208,-0.146 0.193,-0.215L0.566,-0.215C0.567,-0.229 0.568,-0.243 0.568,-0.255C0.568,-0.407 0.486,-0.546 0.307,-0.546C0.151,-0.546 0.042,-0.42 0.042,-0.267L0.042,-0.265C0.042,-0.101 0.161,0.012 0.322,0.012ZM0.191,-0.31C0.203,-0.379 0.244,-0.424 0.307,-0.424C0.371,-0.424 0.411,-0.378 0.42,-0.31L0.191,-0.31Z" style="fill:white;fill-rule:nonzero;"/>
                    </g>
                    <g transform="matrix(16,0,0,16,136.72,51.681)">
                        <rect x="0.075" y="-0.73" width="0.152" height="0.73" style="fill:white;fill-rule:nonzero;"/>
                    </g>
                    <g transform="matrix(16,0,0,16,141.552,51.681)">
                        <rect x="0.075" y="-0.73" width="0.152" height="0.73" style="fill:white;fill-rule:nonzero;"/>
                    </g>
                    <g transform="matrix(16,0,0,16,146.384,51.681)">
                        <path d="M0.071,-0.595L0.231,-0.595L0.231,-0.73L0.071,-0.73L0.071,-0.595ZM0.075,-0L0.227,-0L0.227,-0.536L0.075,-0.536L0.075,-0Z" style="fill:white;fill-rule:nonzero;"/>
                    </g>
                    <g transform="matrix(16,0,0,16,151.216,51.681)">
                        <path d="M0.068,-0L0.22,-0L0.22,-0.299C0.22,-0.371 0.257,-0.408 0.315,-0.408C0.373,-0.408 0.407,-0.371 0.407,-0.299L0.407,-0L0.559,-0L0.559,-0.347C0.559,-0.47 0.492,-0.546 0.377,-0.546C0.3,-0.546 0.255,-0.505 0.22,-0.46L0.22,-0.536L0.068,-0.536L0.068,-0Z" style="fill:white;fill-rule:nonzero;"/>
                    </g>
                    <g transform="matrix(16,0,0,16,161.184,51.681)">
                        <path d="M0.308,0.162C0.412,0.162 0.489,0.14 0.539,0.09C0.584,0.045 0.607,-0.025 0.607,-0.121L0.607,-0.536L0.455,-0.536L0.455,-0.466C0.414,-0.511 0.365,-0.546 0.282,-0.546C0.159,-0.546 0.044,-0.456 0.044,-0.296L0.044,-0.294C0.044,-0.135 0.157,-0.044 0.282,-0.044C0.363,-0.044 0.412,-0.077 0.457,-0.131L0.457,-0.105C0.457,-0.009 0.408,0.041 0.304,0.041C0.233,0.041 0.178,0.023 0.123,-0.008L0.071,0.106C0.139,0.142 0.221,0.162 0.308,0.162ZM0.326,-0.17C0.252,-0.17 0.196,-0.22 0.196,-0.294L0.196,-0.296C0.196,-0.369 0.252,-0.42 0.326,-0.42C0.4,-0.42 0.457,-0.369 0.457,-0.296L0.457,-0.294C0.457,-0.221 0.4,-0.17 0.326,-0.17Z" style="fill:white;fill-rule:nonzero;"/>
                    </g>
                    <g transform="matrix(16,0,0,16,171.984,51.681)">
                        <path d="M0.249,0.009C0.3,0.009 0.337,-0.003 0.369,-0.022L0.369,-0.144C0.347,-0.132 0.322,-0.125 0.294,-0.125C0.26,-0.125 0.245,-0.142 0.245,-0.177L0.245,-0.406L0.371,-0.406L0.371,-0.536L0.245,-0.536L0.245,-0.673L0.093,-0.673L0.093,-0.536L0.029,-0.536L0.029,-0.406L0.093,-0.406L0.093,-0.152C0.093,-0.028 0.156,0.009 0.249,0.009Z" style="fill:white;fill-rule:nonzero;"/>
                    </g>
                    <g transform="matrix(16,0,0,16,178.384,51.681)">
                        <path d="M0.331,0.012C0.498,0.012 0.622,-0.113 0.622,-0.267L0.622,-0.269C0.622,-0.423 0.499,-0.546 0.333,-0.546C0.166,-0.546 0.042,-0.421 0.042,-0.267L0.042,-0.265C0.042,-0.111 0.165,0.012 0.331,0.012ZM0.333,-0.119C0.249,-0.119 0.192,-0.188 0.192,-0.267L0.192,-0.269C0.192,-0.348 0.244,-0.415 0.331,-0.415C0.415,-0.415 0.472,-0.346 0.472,-0.267L0.472,-0.265C0.472,-0.186 0.42,-0.119 0.333,-0.119Z" style="fill:white;fill-rule:nonzero;"/>
                    </g>
                    <g transform="matrix(16,0,0,16,189.008,51.681)">
                        <path d="M0.068,-0L0.22,-0L0.22,-0.299C0.22,-0.371 0.257,-0.408 0.315,-0.408C0.373,-0.408 0.407,-0.371 0.407,-0.299L0.407,-0L0.559,-0L0.559,-0.347C0.559,-0.47 0.492,-0.546 0.377,-0.546C0.3,-0.546 0.255,-0.505 0.22,-0.46L0.22,-0.536L0.068,-0.536L0.068,-0Z" style="fill:white;fill-rule:nonzero;"/>
                    </g>
                    <g transform="matrix(16,0,0,16,203.776,51.681)">
                        <path d="M0.412,0.012C0.547,0.012 0.627,-0.036 0.699,-0.113L0.601,-0.212C0.546,-0.162 0.497,-0.13 0.417,-0.13C0.297,-0.13 0.214,-0.23 0.214,-0.35L0.214,-0.352C0.214,-0.472 0.299,-0.57 0.417,-0.57C0.487,-0.57 0.542,-0.54 0.596,-0.491L0.694,-0.604C0.629,-0.668 0.55,-0.712 0.418,-0.712C0.203,-0.712 0.053,-0.549 0.053,-0.35L0.053,-0.348C0.053,-0.147 0.206,0.012 0.412,0.012Z" style="fill:white;fill-rule:nonzero;"/>
                    </g>
                    <g transform="matrix(16,0,0,16,215.584,51.681)">
                        <path d="M0.068,-0L0.22,-0L0.22,-0.299C0.22,-0.371 0.257,-0.408 0.315,-0.408C0.373,-0.408 0.407,-0.371 0.407,-0.299L0.407,-0L0.559,-0L0.559,-0.347C0.559,-0.47 0.492,-0.546 0.377,-0.546C0.3,-0.546 0.255,-0.505 0.22,-0.46L0.22,-0.73L0.068,-0.73L0.068,-0Z" style="fill:white;fill-rule:nonzero;"/>
                    </g>
                    <g transform="matrix(16,0,0,16,225.552,51.681)">
                        <path d="M0.068,-0L0.22,-0L0.22,-0.198C0.22,-0.326 0.282,-0.387 0.383,-0.387L0.391,-0.387L0.391,-0.546C0.301,-0.55 0.251,-0.502 0.22,-0.428L0.22,-0.536L0.068,-0.536L0.068,-0Z" style="fill:white;fill-rule:nonzero;"/>
                    </g>
                    <g transform="matrix(16,0,0,16,232.24,51.681)">
                        <path d="M0.071,-0.595L0.231,-0.595L0.231,-0.73L0.071,-0.73L0.071,-0.595ZM0.075,-0L0.227,-0L0.227,-0.536L0.075,-0.536L0.075,-0Z" style="fill:white;fill-rule:nonzero;"/>
                    </g>
                    <g transform="matrix(16,0,0,16,237.072,51.681)">
                        <path d="M0.256,0.01C0.372,0.01 0.461,-0.044 0.461,-0.163L0.461,-0.165C0.461,-0.263 0.374,-0.299 0.299,-0.324C0.241,-0.344 0.19,-0.358 0.19,-0.388L0.19,-0.39C0.19,-0.411 0.209,-0.427 0.246,-0.427C0.285,-0.427 0.338,-0.408 0.391,-0.377L0.449,-0.482C0.391,-0.521 0.317,-0.544 0.249,-0.544C0.141,-0.544 0.053,-0.483 0.053,-0.374L0.053,-0.372C0.053,-0.268 0.138,-0.233 0.213,-0.211C0.272,-0.193 0.324,-0.182 0.324,-0.149L0.324,-0.147C0.324,-0.123 0.304,-0.107 0.26,-0.107C0.21,-0.107 0.149,-0.129 0.091,-0.171L0.026,-0.071C0.097,-0.015 0.181,0.01 0.256,0.01Z" style="fill:white;fill-rule:nonzero;"/>
                    </g>
                    <g transform="matrix(16,0,0,16,244.944,51.681)">
                        <path d="M0.249,0.009C0.3,0.009 0.337,-0.003 0.369,-0.022L0.369,-0.144C0.347,-0.132 0.322,-0.125 0.294,-0.125C0.26,-0.125 0.245,-0.142 0.245,-0.177L0.245,-0.406L0.371,-0.406L0.371,-0.536L0.245,-0.536L0.245,-0.673L0.093,-0.673L0.093,-0.536L0.029,-0.536L0.029,-0.406L0.093,-0.406L0.093,-0.152C0.093,-0.028 0.156,0.009 0.249,0.009Z" style="fill:white;fill-rule:nonzero;"/>
                    </g>
                    <g transform="matrix(16,0,0,16,251.584,51.681)">
                        <path d="M0.071,-0.595L0.231,-0.595L0.231,-0.73L0.071,-0.73L0.071,-0.595ZM0.075,-0L0.227,-0L0.227,-0.536L0.075,-0.536L0.075,-0Z" style="fill:white;fill-rule:nonzero;"/>
                    </g>
                    <g transform="matrix(16,0,0,16,256.416,51.681)">
                        <path d="M0.22,0.01C0.294,0.01 0.345,-0.017 0.382,-0.058L0.382,-0L0.529,-0L0.529,-0.311C0.529,-0.383 0.511,-0.442 0.471,-0.482C0.433,-0.52 0.373,-0.542 0.29,-0.542C0.199,-0.542 0.141,-0.525 0.082,-0.499L0.12,-0.383C0.169,-0.401 0.21,-0.412 0.268,-0.412C0.344,-0.412 0.383,-0.377 0.383,-0.314L0.383,-0.305C0.345,-0.318 0.306,-0.327 0.252,-0.327C0.125,-0.327 0.036,-0.273 0.036,-0.156L0.036,-0.154C0.036,-0.048 0.119,0.01 0.22,0.01ZM0.266,-0.095C0.217,-0.095 0.183,-0.119 0.183,-0.16L0.183,-0.162C0.183,-0.21 0.223,-0.236 0.288,-0.236C0.325,-0.236 0.359,-0.228 0.385,-0.216L0.385,-0.189C0.385,-0.134 0.337,-0.095 0.266,-0.095Z" style="fill:white;fill-rule:nonzero;"/>
                    </g>
                    <g transform="matrix(16,0,0,16,265.888,51.681)">
                        <path d="M0.068,-0L0.22,-0L0.22,-0.299C0.22,-0.371 0.257,-0.408 0.315,-0.408C0.373,-0.408 0.407,-0.371 0.407,-0.299L0.407,-0L0.559,-0L0.559,-0.347C0.559,-0.47 0.492,-0.546 0.377,-0.546C0.3,-0.546 0.255,-0.505 0.22,-0.46L0.22,-0.536L0.068,-0.536L0.068,-0Z" style="fill:white;fill-rule:nonzero;"/>
                    </g>
                    <g transform="matrix(16,0,0,16,110,70.881)">
                        <path d="M0.024,-0L0.181,-0L0.245,-0.157L0.541,-0.157L0.605,-0L0.766,-0L0.466,-0.705L0.324,-0.705L0.024,-0ZM0.3,-0.293L0.393,-0.52L0.486,-0.293L0.3,-0.293Z" style="fill:white;fill-rule:nonzero;"/>
                    </g>
                    <g transform="matrix(16,0,0,16,122.64,70.881)">
                        <path d="M0.068,0.16L0.22,0.16L0.22,-0.07C0.256,-0.027 0.306,0.01 0.387,0.01C0.514,0.01 0.631,-0.088 0.631,-0.267L0.631,-0.269C0.631,-0.448 0.512,-0.546 0.387,-0.546C0.308,-0.546 0.257,-0.509 0.22,-0.459L0.22,-0.536L0.068,-0.536L0.068,0.16ZM0.348,-0.119C0.277,-0.119 0.218,-0.178 0.218,-0.267L0.218,-0.269C0.218,-0.358 0.277,-0.417 0.348,-0.417C0.419,-0.417 0.479,-0.358 0.479,-0.269L0.479,-0.267C0.479,-0.177 0.419,-0.119 0.348,-0.119Z" style="fill:white;fill-rule:nonzero;"/>
                    </g>
                    <g transform="matrix(16,0,0,16,133.44,70.881)">
                        <path d="M0.331,0.012C0.498,0.012 0.622,-0.113 0.622,-0.267L0.622,-0.269C0.622,-0.423 0.499,-0.546 0.333,-0.546C0.166,-0.546 0.042,-0.421 0.042,-0.267L0.042,-0.265C0.042,-0.111 0.165,0.012 0.331,0.012ZM0.333,-0.119C0.249,-0.119 0.192,-0.188 0.192,-0.267L0.192,-0.269C0.192,-0.348 0.244,-0.415 0.331,-0.415C0.415,-0.415 0.472,-0.346 0.472,-0.267L0.472,-0.265C0.472,-0.186 0.42,-0.119 0.333,-0.119Z" style="fill:white;fill-rule:nonzero;"/>
                    </g>
                    <g transform="matrix(16,0,0,16,144.064,70.881)">
                        <rect x="0.075" y="-0.73" width="0.152" height="0.73" style="fill:white;fill-rule:nonzero;"/>
                    </g>
                    <g transform="matrix(16,0,0,16,148.896,70.881)">
                        <path d="M0.331,0.012C0.498,0.012 0.622,-0.113 0.622,-0.267L0.622,-0.269C0.622,-0.423 0.499,-0.546 0.333,-0.546C0.166,-0.546 0.042,-0.421 0.042,-0.267L0.042,-0.265C0.042,-0.111 0.165,0.012 0.331,0.012ZM0.333,-0.119C0.249,-0.119 0.192,-0.188 0.192,-0.267L0.192,-0.269C0.192,-0.348 0.244,-0.415 0.331,-0.415C0.415,-0.415 0.472,-0.346 0.472,-0.267L0.472,-0.265C0.472,-0.186 0.42,-0.119 0.333,-0.119Z" style="fill:white;fill-rule:nonzero;"/>
                    </g>
                    <g transform="matrix(16,0,0,16,159.52,70.881)">
                        <path d="M0.308,0.162C0.412,0.162 0.489,0.14 0.539,0.09C0.584,0.045 0.607,-0.025 0.607,-0.121L0.607,-0.536L0.455,-0.536L0.455,-0.466C0.414,-0.511 0.365,-0.546 0.282,-0.546C0.159,-0.546 0.044,-0.456 0.044,-0.296L0.044,-0.294C0.044,-0.135 0.157,-0.044 0.282,-0.044C0.363,-0.044 0.412,-0.077 0.457,-0.131L0.457,-0.105C0.457,-0.009 0.408,0.041 0.304,0.041C0.233,0.041 0.178,0.023 0.123,-0.008L0.071,0.106C0.139,0.142 0.221,0.162 0.308,0.162ZM0.326,-0.17C0.252,-0.17 0.196,-0.22 0.196,-0.294L0.196,-0.296C0.196,-0.369 0.252,-0.42 0.326,-0.42C0.4,-0.42 0.457,-0.369 0.457,-0.296L0.457,-0.294C0.457,-0.221 0.4,-0.17 0.326,-0.17Z" style="fill:white;fill-rule:nonzero;"/>
                    </g>
                    <g transform="matrix(16,0,0,16,170.32,70.881)">
                        <path d="M0.322,0.012C0.419,0.012 0.491,-0.026 0.541,-0.088L0.454,-0.165C0.412,-0.126 0.375,-0.11 0.324,-0.11C0.256,-0.11 0.208,-0.146 0.193,-0.215L0.566,-0.215C0.567,-0.229 0.568,-0.243 0.568,-0.255C0.568,-0.407 0.486,-0.546 0.307,-0.546C0.151,-0.546 0.042,-0.42 0.042,-0.267L0.042,-0.265C0.042,-0.101 0.161,0.012 0.322,0.012ZM0.191,-0.31C0.203,-0.379 0.244,-0.424 0.307,-0.424C0.371,-0.424 0.411,-0.378 0.42,-0.31L0.191,-0.31Z" style="fill:white;fill-rule:nonzero;"/>
                    </g>
                    <g transform="matrix(16,0,0,16,180.128,70.881)">
                        <path d="M0.249,0.009C0.3,0.009 0.337,-0.003 0.369,-0.022L0.369,-0.144C0.347,-0.132 0.322,-0.125 0.294,-0.125C0.26,-0.125 0.245,-0.142 0.245,-0.177L0.245,-0.406L0.371,-0.406L0.371,-0.536L0.245,-0.536L0.245,-0.673L0.093,-0.673L0.093,-0.536L0.029,-0.536L0.029,-0.406L0.093,-0.406L0.093,-0.152C0.093,-0.028 0.156,0.009 0.249,0.009Z" style="fill:white;fill-rule:nonzero;"/>
                    </g>
                    <g transform="matrix(16,0,0,16,186.768,70.881)">
                        <path d="M0.071,-0.595L0.231,-0.595L0.231,-0.73L0.071,-0.73L0.071,-0.595ZM0.075,-0L0.227,-0L0.227,-0.536L0.075,-0.536L0.075,-0Z" style="fill:white;fill-rule:nonzero;"/>
                    </g>
                    <g transform="matrix(16,0,0,16,191.6,70.881)">
                        <path d="M0.321,0.012C0.428,0.012 0.488,-0.029 0.54,-0.086L0.451,-0.176C0.414,-0.141 0.379,-0.119 0.328,-0.119C0.245,-0.119 0.192,-0.185 0.192,-0.267L0.192,-0.269C0.192,-0.348 0.246,-0.415 0.322,-0.415C0.376,-0.415 0.41,-0.392 0.444,-0.356L0.537,-0.456C0.487,-0.512 0.424,-0.546 0.323,-0.546C0.159,-0.546 0.042,-0.42 0.042,-0.267L0.042,-0.265C0.042,-0.112 0.16,0.012 0.321,0.012Z" style="fill:white;fill-rule:nonzero;"/>
                    </g>
                    <g transform="matrix(16,0,0,16,200.736,70.881)">
                        <path d="M0.256,0.01C0.372,0.01 0.461,-0.044 0.461,-0.163L0.461,-0.165C0.461,-0.263 0.374,-0.299 0.299,-0.324C0.241,-0.344 0.19,-0.358 0.19,-0.388L0.19,-0.39C0.19,-0.411 0.209,-0.427 0.246,-0.427C0.285,-0.427 0.338,-0.408 0.391,-0.377L0.449,-0.482C0.391,-0.521 0.317,-0.544 0.249,-0.544C0.141,-0.544 0.053,-0.483 0.053,-0.374L0.053,-0.372C0.053,-0.268 0.138,-0.233 0.213,-0.211C0.272,-0.193 0.324,-0.182 0.324,-0.149L0.324,-0.147C0.324,-0.123 0.304,-0.107 0.26,-0.107C0.21,-0.107 0.149,-0.129 0.091,-0.171L0.026,-0.071C0.097,-0.015 0.181,0.01 0.256,0.01Z" style="fill:white;fill-rule:nonzero;"/>
                    </g>
                    <g transform="matrix(16,0,0,16,213.568,70.881)">
                        <path d="M0.333,0.01C0.484,0.01 0.59,-0.068 0.59,-0.207L0.59,-0.209C0.59,-0.331 0.51,-0.382 0.368,-0.419C0.247,-0.45 0.217,-0.465 0.217,-0.511L0.217,-0.513C0.217,-0.547 0.248,-0.574 0.307,-0.574C0.366,-0.574 0.427,-0.548 0.489,-0.505L0.569,-0.621C0.498,-0.678 0.411,-0.71 0.309,-0.71C0.166,-0.71 0.064,-0.626 0.064,-0.499L0.064,-0.497C0.064,-0.358 0.155,-0.319 0.296,-0.283C0.413,-0.253 0.437,-0.233 0.437,-0.194L0.437,-0.192C0.437,-0.151 0.399,-0.126 0.336,-0.126C0.256,-0.126 0.19,-0.159 0.127,-0.211L0.036,-0.102C0.12,-0.027 0.227,0.01 0.333,0.01Z" style="fill:white;fill-rule:nonzero;"/>
                    </g>
                    <g transform="matrix(16,0,0,16,223.808,70.881)">
                        <path d="M0.331,0.012C0.498,0.012 0.622,-0.113 0.622,-0.267L0.622,-0.269C0.622,-0.423 0.499,-0.546 0.333,-0.546C0.166,-0.546 0.042,-0.421 0.042,-0.267L0.042,-0.265C0.042,-0.111 0.165,0.012 0.331,0.012ZM0.333,-0.119C0.249,-0.119 0.192,-0.188 0.192,-0.267L0.192,-0.269C0.192,-0.348 0.244,-0.415 0.331,-0.415C0.415,-0.415 0.472,-0.346 0.472,-0.267L0.472,-0.265C0.472,-0.186 0.42,-0.119 0.333,-0.119Z" style="fill:white;fill-rule:nonzero;"/>
                    </g>
                    <g transform="matrix(16,0,0,16,234.432,70.881)">
                        <path d="M0.321,0.012C0.428,0.012 0.488,-0.029 0.54,-0.086L0.451,-0.176C0.414,-0.141 0.379,-0.119 0.328,-0.119C0.245,-0.119 0.192,-0.185 0.192,-0.267L0.192,-0.269C0.192,-0.348 0.246,-0.415 0.322,-0.415C0.376,-0.415 0.41,-0.392 0.444,-0.356L0.537,-0.456C0.487,-0.512 0.424,-0.546 0.323,-0.546C0.159,-0.546 0.042,-0.42 0.042,-0.267L0.042,-0.265C0.042,-0.112 0.16,0.012 0.321,0.012Z" style="fill:white;fill-rule:nonzero;"/>
                    </g>
                    <g transform="matrix(16,0,0,16,243.568,70.881)">
                        <path d="M0.071,-0.595L0.231,-0.595L0.231,-0.73L0.071,-0.73L0.071,-0.595ZM0.075,-0L0.227,-0L0.227,-0.536L0.075,-0.536L0.075,-0Z" style="fill:white;fill-rule:nonzero;"/>
                    </g>
                    <g transform="matrix(16,0,0,16,248.4,70.881)">
                        <path d="M0.322,0.012C0.419,0.012 0.491,-0.026 0.541,-0.088L0.454,-0.165C0.412,-0.126 0.375,-0.11 0.324,-0.11C0.256,-0.11 0.208,-0.146 0.193,-0.215L0.566,-0.215C0.567,-0.229 0.568,-0.243 0.568,-0.255C0.568,-0.407 0.486,-0.546 0.307,-0.546C0.151,-0.546 0.042,-0.42 0.042,-0.267L0.042,-0.265C0.042,-0.101 0.161,0.012 0.322,0.012ZM0.191,-0.31C0.203,-0.379 0.244,-0.424 0.307,-0.424C0.371,-0.424 0.411,-0.378 0.42,-0.31L0.191,-0.31Z" style="fill:white;fill-rule:nonzero;"/>
                    </g>
                    <g transform="matrix(16,0,0,16,258.208,70.881)">
                        <path d="M0.249,0.009C0.3,0.009 0.337,-0.003 0.369,-0.022L0.369,-0.144C0.347,-0.132 0.322,-0.125 0.294,-0.125C0.26,-0.125 0.245,-0.142 0.245,-0.177L0.245,-0.406L0.371,-0.406L0.371,-0.536L0.245,-0.536L0.245,-0.673L0.093,-0.673L0.093,-0.536L0.029,-0.536L0.029,-0.406L0.093,-0.406L0.093,-0.152C0.093,-0.028 0.156,0.009 0.249,0.009Z" style="fill:white;fill-rule:nonzero;"/>
                    </g>
                    <g transform="matrix(16,0,0,16,264.848,70.881)">
                        <path d="M0.196,0.163C0.287,0.163 0.331,0.122 0.372,0.013L0.578,-0.536L0.42,-0.536L0.303,-0.171L0.181,-0.536L0.02,-0.536L0.23,0.002C0.217,0.029 0.203,0.037 0.177,0.037C0.157,0.037 0.132,0.028 0.112,0.016L0.061,0.126C0.1,0.149 0.141,0.163 0.196,0.163Z" style="fill:white;fill-rule:nonzero;"/>
                    </g>
                </g>
                <g transform="matrix(0.141837,0,0,0.140922,-25.1083,-35.6987)">
                    <path d="M1374.8,585.8C1310.4,340.1 1105.2,151.5 850.6,111.4C818.8,593.4 1202.4,604.7 1374.8,585.8Z" style="fill:rgb(141,233,113);fill-rule:nonzero;"/>
                    <path d="M123.4,585.8C295.8,604.7 679.4,593.4 647.6,111.4C393,151.5 187.8,340.1 123.4,585.8Z" style="fill:rgb(255,170,77);fill-rule:nonzero;"/>
                    <path d="M1392,704.1C1247,684.8 902,676.8 849,1042.2L849,1388.7C1166,1338.9 1392.8,1072.1 1392.8,750.3C1392.8,734.7 1393.1,719.4 1392,704.1Z" style="fill:rgb(255,243,109);fill-rule:nonzero;"/>
                    <path d="M107.1,704.1C106,719.4 106.8,734.7 106.8,750.3C106.8,1072.1 333,1338.9 651,1388.7L651,1042.2C598,676.8 252.1,684.8 107.1,704.1Z" style="fill:rgb(255,62,181);fill-rule:nonzero;"/>
                </g>
            </g>
        </g>
    </g>
</svg>
